<?xml version="1.0" encoding="utf-8"?>
<!-- Generator: Adobe Illustrator 23.0.5, SVG Export Plug-In . SVG Version: 6.00 Build 0)  -->
<svg version="1.1" id="Layer_1" xmlns="http://www.w3.org/2000/svg" xmlns:xlink="http://www.w3.org/1999/xlink" x="0px" y="0px"
	 viewBox="0 0 24 24" style="enable-background:new 0 0 24 24;" xml:space="preserve">
<g id="XMLID_834_">
	<path id="XMLID_835_" d="M6.35,12.82h2.62v10.79c0,0.21,0.17,0.39,0.39,0.39h4.45c0.21,0,0.39-0.17,0.39-0.39V12.87h3.01
		c0.2,0,0.36-0.15,0.38-0.34l0.46-3.97c0.01-0.11-0.02-0.22-0.1-0.3c-0.07-0.08-0.18-0.13-0.29-0.13h-3.47V5.64
		c0-0.75,0.4-1.13,1.2-1.13c0.11,0,2.27,0,2.27,0c0.21,0,0.39-0.17,0.39-0.39V0.47c0-0.21-0.17-0.39-0.39-0.39h-3.13
		c-0.02,0-0.07,0-0.14,0c-0.54,0-2.43,0.11-3.92,1.48C8.81,3.08,9.04,4.9,9.1,5.21v2.91H6.35c-0.21,0-0.39,0.17-0.39,0.39v3.92
		C5.96,12.65,6.13,12.82,6.35,12.82z"/>
</g>
</svg>
